<?xml version="1.0" encoding="UTF-8" standalone="no"?>
<!-- Created with Inkscape (http://www.inkscape.org/) -->

<svg
   width="442.46823"
   height="442.46823"
   viewBox="0 0 442.46823 442.46823"
   version="1.1"
   id="svg1"
   sodipodi:docname="Menu_Start.svg"
   inkscape:version="1.4.2 (f4327f4, 2025-05-13)"
   xmlns:inkscape="http://www.inkscape.org/namespaces/inkscape"
   xmlns:sodipodi="http://sodipodi.sourceforge.net/DTD/sodipodi-0.dtd"
   xmlns="http://www.w3.org/2000/svg"
   xmlns:svg="http://www.w3.org/2000/svg">
  <sodipodi:namedview
     id="namedview1"
     pagecolor="#ffffff"
     bordercolor="#000000"
     borderopacity="0.25"
     inkscape:showpageshadow="2"
     inkscape:pageopacity="0.0"
     inkscape:pagecheckerboard="0"
     inkscape:deskcolor="#d1d1d1"
     inkscape:document-units="px"
     inkscape:zoom="0.35355339"
     inkscape:cx="-121.62237"
     inkscape:cy="298.39906"
     inkscape:window-width="1920"
     inkscape:window-height="1009"
     inkscape:window-x="2552"
     inkscape:window-y="-8"
     inkscape:window-maximized="1"
     inkscape:current-layer="layer1" />
  <defs
     id="defs1" />
  <g
     inkscape:label="Layer 1"
     inkscape:groupmode="layer"
     id="layer1"
     transform="translate(-1488.6994,-147.32787)">
    <path
       sodipodi:type="star"
       style="fill:#a61700;fill-opacity:1"
       id="path7"
       inkscape:flatsided="false"
       sodipodi:sides="8"
       sodipodi:cx="1626"
       sodipodi:cy="360"
       sodipodi:r1="220.84384"
       sodipodi:r2="156.95865"
       sodipodi:arg1="0.66342601"
       sodipodi:arg2="0.90999847"
       inkscape:rounded="0.54169855"
       inkscape:randomized="0"
       d="m 1800,496 c -21.0444,37.01384 -40.6,-33.03124 -77.6671,-12.08071 -55.6072,31.42955 -7.8754,78.34367 -69.4628,95.28382 -41.0534,11.29208 -5.352,-52.06519 -46.3766,-63.4613 C 1544.9492,498.64562 1545.5274,565.5704 1490,534 c -37.0138,-21.04442 33.0312,-40.60004 12.0807,-77.66711 -31.4295,-55.60722 -78.3437,-7.87541 -95.2838,-69.46283 -11.2921,-41.05339 52.0652,-5.35195 63.4613,-46.37659 C 1487.3544,278.94918 1420.4296,279.52737 1452,224 c 21.0444,-37.01384 40.6,33.03124 77.6671,12.08071 55.6072,-31.42955 7.8754,-78.34367 69.4628,-95.28382 41.0534,-11.29208 5.352,52.06519 46.3766,63.4613 C 1707.0508,221.35438 1706.4726,154.4296 1762,186 c 37.0138,21.04442 -33.0312,40.60004 -12.0807,77.66711 31.4295,55.60722 78.3437,7.87541 95.2838,69.46283 11.2921,41.05339 -52.0652,5.35195 -63.4613,46.37659 C 1764.6456,441.05082 1831.5704,440.47263 1800,496 Z"
       inkscape:transform-center-x="-1.202446"
       inkscape:transform-center-y="-9.3954"
       transform="rotate(3.0300132,1506.1025,1951.0455)" />
    <path
       sodipodi:type="star"
       style="fill:#a61700;fill-opacity:1"
       id="path6"
       inkscape:flatsided="false"
       sodipodi:sides="4"
       sodipodi:cx="1626"
       sodipodi:cy="360"
       sodipodi:r1="220.84384"
       sodipodi:r2="89.377342"
       sodipodi:arg1="0.66342601"
       sodipodi:arg2="1.538512"
       inkscape:rounded="0.16784763"
       inkscape:randomized="0"
       d="M 1800,496 C 1779.6354,517.71528 1658.4338,445.70625 1628.885,449.33077 1601.7862,452.65476 1509.9148,552.6761 1490,534 1468.2847,513.63538 1540.2937,392.43383 1536.6692,362.88499 1533.3452,335.78618 1433.3239,243.91476 1452,224 c 20.3646,-21.71528 141.5662,50.29375 171.115,46.66923 C 1650.2138,267.34524 1742.0852,167.3239 1762,186 c 21.7153,20.36462 -50.2937,141.56617 -46.6692,171.11501 C 1718.6548,384.21382 1818.6761,476.08524 1800,496 Z"
       inkscape:transform-center-x="-8.3534741"
       inkscape:transform-center-y="4.4653408"
       transform="rotate(110.83357,1663.5919,402.40023)" />
    <ellipse
       style="fill:#400900;fill-opacity:1;stroke-width:1"
       id="ellipse9"
       ry="111.72288"
       rx="107.2023"
       cy="354.96759"
       cx="1706.6777" />
    <ellipse
       style="fill:#811200;fill-opacity:1;stroke-width:1"
       id="path8"
       cx="1707.1355"
       cy="353.55338"
       rx="96.346375"
       ry="100.40917" />
    <path
       id="ellipse9-8"
       style="fill:#c5fffd;fill-opacity:1;stroke-width:0.999996"
       d="m 1812.2758,285.49593 a 123.10404,130.51565 0 0 1 17.2768,66.50337 123.10404,130.51565 0 0 1 -123.1043,130.51554 123.10404,130.51565 0 0 1 -92.2527,-44.52012 122.63838,130.02194 0 0 0 101.4951,57.53149 122.63838,130.02194 0 0 0 122.6373,-130.02087 122.63838,130.02194 0 0 0 -26.0522,-80.00941 z" />
  </g>
</svg>
