<?xml version="1.0" encoding="UTF-8" standalone="no"?>
<!-- Created with Inkscape (http://www.inkscape.org/) -->

<svg
   width="80.447266"
   height="99.035156"
   viewBox="0 0 80.447266 99.035156"
   version="1.1"
   id="svg1"
   xml:space="preserve"
   inkscape:version="1.4.2 (f4327f4, 2025-05-13)"
   sodipodi:docname="Parchment_1_Plain.svg"
   xmlns:inkscape="http://www.inkscape.org/namespaces/inkscape"
   xmlns:sodipodi="http://sodipodi.sourceforge.net/DTD/sodipodi-0.dtd"
   xmlns:xlink="http://www.w3.org/1999/xlink"
   xmlns="http://www.w3.org/2000/svg"
   xmlns:svg="http://www.w3.org/2000/svg"><sodipodi:namedview
     id="namedview1"
     pagecolor="#ffffff"
     bordercolor="#000000"
     borderopacity="0.25"
     inkscape:showpageshadow="2"
     inkscape:pageopacity="0.0"
     inkscape:pagecheckerboard="0"
     inkscape:deskcolor="#d1d1d1"
     inkscape:document-units="px"
     inkscape:zoom="6.725"
     inkscape:cx="25.501859"
     inkscape:cy="51.524164"
     inkscape:window-width="1920"
     inkscape:window-height="1009"
     inkscape:window-x="2552"
     inkscape:window-y="-8"
     inkscape:window-maximized="1"
     inkscape:current-layer="layer1" /><defs
     id="defs1"><linearGradient
       inkscape:collect="always"
       xlink:href="#linearGradient2"
       id="linearGradient3"
       x1="62.527882"
       y1="98.513016"
       x2="62.527882"
       y2="18.066914"
       gradientUnits="userSpaceOnUse"
       gradientTransform="translate(3.6939063e-4,-7.8021622e-4)" /><linearGradient
       id="linearGradient2"
       inkscape:collect="always"><stop
         style="stop-color:#e9a16d;stop-opacity:1;"
         offset="0"
         id="stop2" /><stop
         style="stop-color:#f4ceb3;stop-opacity:1;"
         offset="1"
         id="stop3" /></linearGradient></defs><g
     inkscape:label="Layer 1"
     inkscape:groupmode="layer"
     id="layer1"
     transform="translate(-22.304051,-8.7724532)"><rect
       style="fill:url(#linearGradient3);fill-opacity:1;stroke:none;stroke-width:0.4;stroke-dasharray:none;stroke-opacity:1"
       id="rect2"
       width="80.446106"
       height="99.033455"
       x="22.305214"
       y="8.7724533" /><path
       id="path27"
       style="fill:#754924;fill-opacity:0.445141;stroke-width:0.4"
       d="M 43.69077,8.7724532 H 22.304051 V 28.458 a 4.8367157,9.3054199 0 0 1 1.273437,-0.328125 4.8367157,9.3054199 0 0 1 4.236328,4.818359 c 3.763675,0.396101 10.916992,2.103879 12.138672,0.392579 2.259298,-3.16477 -2.980234,-14.84393 -1.533203,-18.453125 0.647259,-1.614399 6.118573,-2.261119 9.083985,-3.263672 -2.256239,-0.740677 -3.615642,-1.7641421 -3.8125,-2.8515628 z" /><path
       id="path26"
       style="fill:#754924;fill-opacity:0.363636;stroke-width:0.4"
       d="m 87.69077,107.80761 h 15.06055 V 84.684563 a 5.7830296,12.196935 0 0 1 -1.99805,0.75 5.7830296,12.196935 0 0 1 -5.644532,-9.556641 c -1.311116,1.311577 -2.060147,6.638093 -3.402343,7.455078 -2.375411,1.445893 -10.3082,1.306333 -13.501954,2.898438 a 21.040892,14.200744 35.582844 0 1 9.486329,21.576172 z" /><path
       id="path28"
       style="fill:#754924;fill-opacity:0.363636;stroke-width:0.4"
       d="M 77.630223,107.80761 H 87.69077 A 21.040892,14.200744 35.582844 0 0 78.204441,86.231438 c -0.398572,0.19869 -0.724163,0.424522 -0.955078,0.683593 -1.225045,1.37442 4.588171,5.604676 4.63086,7.445313 0.06636,2.86138 -4.265372,9.982606 -4.25,13.447266 z" /><path
       id="path22"
       style="fill:#754924;fill-opacity:0.363636;stroke-width:0.4"
       d="m 59.667332,107.80761 h 17.962891 c -0.01537,-3.46466 4.316358,-10.585886 4.25,-13.447266 -0.04269,-1.840637 -5.855905,-6.070893 -4.63086,-7.445313 0.230915,-0.259071 0.556506,-0.484903 0.955078,-0.683593 a 21.040892,14.200744 35.582844 0 0 -0.423828,-0.308594 21.040892,14.200744 35.582844 0 0 -25.375,-0.69336 21.040892,14.200744 35.582844 0 0 7.261719,22.578126 z" /><path
       id="path16"
       style="fill:#754924;fill-opacity:0.445141;stroke-width:0.4"
       d="M 48.304051,8.7724532 H 43.69077 a 11.821562,4.2379184 0 0 0 3.8125,2.8515628 C 48.823757,11.177582 49.646442,10.660951 49.325535,9.9560469 49.132436,9.5318852 48.779512,9.1391383 48.304051,8.7724532 Z" /><path
       id="path15"
       style="fill:#754924;fill-opacity:0.445141;stroke-width:0.4"
       d="M 65.020848,8.7724532 H 48.304051 c 0.475461,0.3666851 0.828385,0.759432 1.021484,1.1835937 0.320907,0.7049041 -0.501778,1.2215351 -1.822265,1.6679691 a 11.821562,4.2379184 0 0 0 7.984375,1.113281 11.821562,4.2379184 0 0 0 7.292968,-0.902344 11.152416,6.2453532 0 0 1 2.240235,-3.0624998 z" /><path
       id="path18"
       style="fill:#754924;fill-opacity:0.445141;stroke-width:0.4"
       d="M 67.28452,8.7724532 H 65.020848 A 11.152416,6.2453532 0 0 0 62.780613,11.834953 11.821562,4.2379184 0 0 0 67.28452,8.7724532 Z" /><path
       id="path17"
       style="fill:#754924;fill-opacity:0.445141;stroke-width:0.4"
       d="M 80.052098,8.7724532 H 67.28452 a 11.821562,4.2379184 0 0 1 -4.503907,3.0624998 11.152416,6.2453532 0 0 0 -0.08008,0.753906 11.152416,6.2453532 0 0 0 11.152344,6.244141 11.152416,6.2453532 0 0 0 11.148437,-6.107422 4.907063,5.7992563 0 0 1 -0.294921,0.01172 4.907063,5.7992563 0 0 1 -4.654297,-3.9648438 z" /><path
       id="path20"
       style="fill:#754924;fill-opacity:0.445141;stroke-width:0.4"
       d="m 82.681004,8.7724532 h -2.628906 a 4.907063,5.7992563 0 0 0 4.654297,3.9648438 4.907063,5.7992563 0 0 0 0.294921,-0.01172 11.152416,6.2453532 0 0 0 0.0039,-0.136719 11.152416,6.2453532 0 0 0 -2.324219,-3.8164058 z" /><path
       id="path19"
       style="fill:#754924;fill-opacity:0.445141;stroke-width:0.4"
       d="m 89.362645,8.7724532 h -6.681641 a 11.152416,6.2453532 0 0 1 2.324219,3.8164058 11.152416,6.2453532 0 0 1 -0.0039,0.136719 4.907063,5.7992563 0 0 0 4.361329,-3.9531248 z" /><path
       id="path24"
       style="fill:#754924;fill-opacity:0.445141;stroke-width:0.4"
       d="m 22.304051,28.458 v 5.833984 c 1.221153,-0.645348 2.461432,-1.204625 3.759765,-1.390625 0.407045,-0.05831 1.013958,-0.03059 1.75,0.04687 A 4.8367157,9.3054199 0 0 0 23.577488,28.129875 4.8367157,9.3054199 0 0 0 22.304051,28.458 Z" /><path
       id="path23"
       style="fill:#754924;fill-opacity:0.445141;stroke-width:0.4"
       d="m 22.304051,34.291984 v 12.121094 a 4.8367157,9.3054199 0 0 0 1.273437,0.328125 4.8367157,9.3054199 0 0 0 4.835938,-9.304687 4.8367157,9.3054199 0 0 0 -0.59961,-4.488282 c -0.736042,-0.07746 -1.342955,-0.105193 -1.75,-0.04687 -1.298333,0.186 -2.538612,0.745277 -3.759765,1.390625 z" /><path
       d="M 41.007403,91.782874 C 45.13458,89.489176 39.38145,87.17379 35.872428,80.856677 32.363435,74.540421 32.427836,66.613733 28.300005,68.905225 c -4.128185,2.292425 -4.630442,9.272188 -1.121837,15.589998 3.509315,6.318285 9.701105,9.581199 13.829235,7.287651 z"
       style="fill:#754924;fill-opacity:0.445141;stroke-width:0.4"
       id="path31"
       sodipodi:nodetypes="ccccc" /><path
       id="path29"
       style="fill:#734724;fill-opacity:0.364706;stroke-width:0.4"
       d="m 102.75132,84.684563 v -1.919922 c -2.32958,-2.999891 -4.927533,-6.752671 -6.912113,-7.164063 -0.05634,-0.01168 -0.111665,-0.01627 -0.166016,-0.01367 -0.200552,0.0096 -0.387301,0.113802 -0.564453,0.291016 a 5.7830296,12.196935 0 0 0 5.644532,9.556641 5.7830296,12.196935 0 0 0 1.99805,-0.75 z" /><path
       id="path25"
       style="fill:#734724;fill-opacity:0.364706;stroke-width:0.4"
       d="M 102.75132,82.764641 V 61.791984 a 5.7830296,12.196935 0 0 0 -1.99805,-0.75 5.7830296,12.196935 0 0 0 -5.783204,12.195313 5.7830296,12.196935 0 0 0 0.138672,2.640625 c 0.177152,-0.177214 0.363901,-0.281436 0.564453,-0.291016 0.05435,-0.0026 0.109676,0.002 0.166016,0.01367 1.98458,0.411392 4.582533,4.164172 6.912113,7.164063 z" /></g></svg>
